<?xml version="1.0" standalone="no"?>
<!DOCTYPE svg PUBLIC "-//W3C//DTD SVG 20010904//EN"
 "http://www.w3.org/TR/2001/REC-SVG-20010904/DTD/svg10.dtd">
<svg version="1.0" xmlns="http://www.w3.org/2000/svg"
 width="1024.000000pt" height="1024.000000pt" viewBox="0 0 1024.000000 1024.000000"
 preserveAspectRatio="xMidYMid meet">

<g transform="translate(0.000000,1024.000000) scale(0.100000,-0.100000)"
fill="#374151" stroke="none">
<path d="M4935 8649 c-105 -11 -220 -34 -325 -65 -97 -29 -295 -122 -388 -183
l-64 -42 -41 24 c-23 14 -100 59 -172 101 -71 42 -166 95 -210 118 -94 48
-123 47 -156 -5 -19 -29 -20 -43 -15 -147 8 -176 56 -322 145 -434 l39 -50
-37 -55 c-53 -78 -123 -221 -155 -315 -85 -255 -99 -587 -34 -847 l21 -86 -30
-44 c-81 -118 -143 -317 -162 -519 -35 -371 57 -814 355 -1712 73 -219 110
-318 120 -318 19 0 200 181 349 350 453 510 704 998 765 1485 24 188 10 490
-34 783 -6 41 12 22 76 -79 35 -56 76 -116 92 -135 54 -64 95 -40 171 102 26
49 54 100 62 113 l15 23 31 -29 c117 -110 286 -178 527 -212 160 -23 225 -46
325 -112 220 -148 321 -395 286 -703 -33 -285 -119 -523 -274 -758 -235 -355
-531 -569 -907 -654 -61 -13 -153 -18 -480 -23 -448 -7 -436 -5 -497 -75 -40
-45 -57 -96 -58 -172 0 -97 10 -104 159 -104 97 0 132 4 174 20 41 16 76 20
165 20 75 0 117 -4 125 -12 7 -7 12 -39 12 -73 0 -34 5 -66 12 -73 17 -17 162
-16 197 2 32 17 51 54 51 102 0 19 6 36 13 39 6 2 101 6 210 10 146 4 202 3
213 -6 9 -7 14 -31 14 -63 0 -96 1 -96 96 -96 81 0 86 1 120 33 26 24 37 43
41 75 3 23 9 45 13 47 28 18 67 -46 56 -91 -14 -56 -3 -64 88 -64 70 0 88 4
117 23 44 30 63 83 54 157 -13 115 -84 218 -195 280 -71 40 -76 28 55 112 316
201 578 534 705 893 86 247 124 459 124 710 1 299 -47 501 -167 699 -33 54
-34 60 -22 90 52 126 69 482 31 681 -33 181 -105 362 -201 512 l-47 73 35 41
c50 58 102 162 128 254 17 62 23 108 23 202 1 115 0 123 -23 147 -14 14 -35
26 -48 26 -30 0 -126 -48 -300 -151 -76 -45 -157 -93 -181 -106 l-43 -25 -57
40 c-269 188 -711 290 -1087 251z m-322 -602 c109 -35 198 -89 275 -166 81
-83 125 -153 166 -269 30 -83 33 -87 64 -90 35 -4 30 -12 81 121 64 163 170
284 313 355 121 61 191 77 328 76 98 -1 127 -5 195 -28 184 -63 319 -186 405
-369 51 -108 70 -190 70 -303 0 -189 -62 -336 -200 -474 -148 -149 -281 -205
-485 -205 -134 0 -204 15 -307 65 -135 66 -265 204 -322 344 -30 73 -33 76
-76 76 l-39 0 -53 -102 c-100 -197 -276 -336 -472 -373 -352 -68 -682 123
-793 460 -24 71 -27 96 -27 215 0 127 2 140 32 222 45 121 94 200 172 278 102
102 221 165 360 189 86 15 226 5 313 -22z m-618 -1699 c154 -175 193 -485 109
-879 -31 -150 -80 -297 -156 -474 -64 -151 -83 -182 -74 -125 55 333 93 595
105 728 13 133 13 386 1 497 -12 108 -37 265 -46 290 -12 31 16 13 61 -37z"/>
<path d="M4313 7716 c-103 -33 -180 -103 -225 -202 -34 -74 -32 -199 4 -276
133 -287 551 -260 648 41 17 55 21 86 17 131 -10 118 -88 234 -192 288 -61 31
-185 40 -252 18z"/>
<path d="M5725 7717 c-93 -31 -170 -101 -213 -197 -37 -80 -37 -202 -1 -280
33 -69 67 -110 126 -149 59 -39 108 -52 192 -52 137 0 251 73 313 199 29 59
33 76 33 147 -1 64 -6 91 -26 135 -34 72 -106 145 -177 178 -67 31 -182 40
-247 19z"/>
<path d="M2655 6952 c-35 -22 -1050 -1049 -1077 -1090 -22 -34 -23 -80 -2
-112 27 -41 1047 -1060 1076 -1076 64 -34 135 -3 163 70 36 95 57 69 -467 593
l-473 473 466 467 c257 258 472 478 478 490 15 29 14 77 -3 116 -31 73 -105
105 -161 69z"/>
<path d="M7455 6937 c-43 -43 -61 -105 -44 -154 9 -27 129 -153 476 -501 255
-255 462 -469 461 -473 -2 -5 -209 -215 -460 -466 -251 -252 -462 -471 -467
-486 -51 -135 75 -249 185 -169 62 46 1048 1050 1061 1082 25 59 9 85 -146
244 -556 568 -917 926 -946 940 -51 25 -83 20 -120 -17z"/>
<path d="M2237 3303 c-4 -3 -7 -51 -7 -105 l0 -98 170 0 170 0 0 -435 0 -435
120 0 120 0 0 435 0 434 158 3 157 3 0 100 0 100 -441 3 c-242 1 -444 -1 -447
-5z"/>
<path d="M3330 2770 l0 -540 120 0 120 0 0 225 0 225 240 0 240 0 0 -225 0
-225 120 0 120 0 0 540 0 541 -117 -3 -118 -3 -3 -207 -2 -208 -240 0 -240 0
0 210 0 210 -120 0 -120 0 0 -540z"/>
<path d="M4587 3303 c-4 -3 -7 -246 -7 -540 l0 -533 388 2 387 3 0 95 0 95
-267 3 -268 2 0 125 0 125 238 2 237 3 0 100 0 100 -237 3 -238 2 0 110 0 110
265 0 265 0 0 100 0 100 -378 0 c-208 0 -382 -3 -385 -7z"/>
<path d="M5620 3253 c-1 -111 -1 -639 0 -830 l0 -193 110 0 110 0 2 338 3 337
56 -75 c31 -41 131 -178 223 -305 92 -126 178 -245 192 -263 l25 -33 117 3
117 3 0 535 0 535 -115 0 -115 0 -5 -345 -5 -345 -21 36 c-12 20 -124 177
-250 348 l-228 311 -108 0 -108 0 0 -57z"/>
<path d="M7195 3298 c-2 -7 -21 -56 -41 -108 -20 -52 -107 -282 -194 -510 -87
-228 -161 -423 -165 -433 -7 -16 1 -17 125 -15 l133 3 37 105 36 105 211 3
211 2 16 -42 c9 -24 27 -72 40 -108 l24 -65 126 -3 c69 -1 126 0 126 3 0 6
-176 468 -329 865 l-79 205 -136 3 c-104 2 -137 0 -141 -10z m155 -263 c0 -7
29 -93 66 -190 36 -98 62 -180 59 -183 -3 -4 -67 -8 -141 -10 -104 -3 -134 -1
-134 8 0 26 135 398 142 394 5 -3 8 -11 8 -19z"/>
<path d="M3990 1560 l0 -362 183 5 c130 3 197 9 235 21 74 24 150 89 187 161
28 55 30 65 30 174 0 139 -20 195 -94 264 -80 75 -134 89 -353 95 l-188 4 0
-362z m335 209 c95 -26 149 -102 149 -209 0 -89 -33 -156 -94 -189 -35 -20
-62 -25 -142 -29 l-98 -5 0 222 0 221 73 0 c39 0 90 -5 112 -11z"/>
<path d="M4867 1913 c-4 -3 -7 -165 -7 -360 l0 -353 243 2 242 3 3 72 c3 69 2
72 -20 71 -13 -1 -89 -1 -170 0 l-148 2 0 70 0 70 150 0 151 0 -3 68 -3 67
-147 3 -148 3 0 74 0 75 165 0 165 0 0 70 0 70 -233 0 c-129 0 -237 -3 -240
-7z"/>
<path d="M5554 1907 c-3 -8 20 -81 50 -163 87 -237 141 -383 172 -464 l29 -75
50 -3 c28 -2 69 -1 92 3 37 5 43 10 58 48 21 53 245 659 245 663 0 2 -38 4
-84 4 l-84 0 -12 -32 c-6 -18 -45 -132 -87 -253 -41 -121 -78 -224 -82 -228
-4 -4 -48 108 -98 250 l-90 258 -77 3 c-58 2 -78 -1 -82 -11z"/>
</g>
</svg>
