<svg id="Layer_1" data-name="Layer 1" xmlns="http://www.w3.org/2000/svg" viewBox="0 0 490.1 167.5"><polygon points="245 15.9 234.4 4.5 237.7 0 245 0 252.3 0 255.6 4.5 245 15.9" style="fill-rule:evenodd"/><path d="M236,102.2a46,46,0,0,1-28.2-34.4,31.21,31.21,0,0,1,6.1-25.4,29.42,29.42,0,0,1,18.5-10.8,29.91,29.91,0,0,1,25.7,8.5,29.46,29.46,0,0,1,7.1,31.2c0,.1,0,.1-.1.2a30.1,30.1,0,0,1-9.7,13.3c27.4-4.9,26.9-35.4,11.6-51.6a41.46,41.46,0,0,0-34.1-12.8,41,41,0,0,0,3.1,81.8Z" style="fill-rule:evenodd"/><path d="M252.8,18.5c16.9,6.2,29.7,23.2,29.8,41.4v.7a29.84,29.84,0,0,1-26.9,28.8,30.89,30.89,0,0,1-8.6-.4l-.6-.1a30.79,30.79,0,0,1-8.3-3.1h0a30.81,30.81,0,0,1-5.2-3.7l-.1-.1-.4-.4-.4-.4-.4-.4-.4-.4-.4-.4-.3-.3-.2-.2-.3-.3-.4-.5-.4-.5-.4-.5-.4-.5-.3-.4-.3-.5-.4-.5-.3-.5-.3-.5-.1-.2-.2-.3-.2-.3-.1-.2-.2-.3-.3-.6-.3-.5-.1-.3-.2-.4-.1-.2-.2-.4-.1-.2-.2-.4-.1-.3-.2-.6-.2-.6-.1-.3-.1-.4-.1-.3-.1-.4-.1-.2-.2-.7-.2-.7-.1-.6-.1-.3-.1-.4v-.3l-.1-.5v-.2c0-.2-.1-.5-.1-.7a29.82,29.82,0,0,1,11.8-26.8h-.3a25.51,25.51,0,0,0-23,24.5c0,1.1.1,2.2.2,3.3,0,.3.1.6.1.9v.2l.1.8.1.4.1.6.1.4a41,41,0,0,0,37,33.7h5.5a2.77,2.77,0,0,0,.9-.1h.2c.3,0,.6-.1,1-.1a41.25,41.25,0,0,0,37-45,40.8,40.8,0,0,0-40.7-37.3Z" style="fill:#a87d54;fill-rule:evenodd"/><path d="M30.9,158.7a16.64,16.64,0,0,1-8.4,2.1c-8.7,0-14.8-6.1-14.8-14.4,0-8.5,6.1-14.4,14.8-14.4a15.26,15.26,0,0,1,11.3,4.7l4.8-4.7c-3.9-4.4-9.6-6.7-16.4-6.7-12.8,0-22.2,8.8-22.2,21s9.4,21,22,21c5.8,0,11.8-1.8,16-5.2V146H30.8v12.7Zm36.3,8.8c12.7,0,22-8.9,22-21s-9.4-21-22-21-22,8.9-22,21,9.3,21,22,21Zm0-6.7a14.4,14.4,0,0,1,0-28.8,14.4,14.4,0,0,1,0,28.8Zm30.1,6.1h29v-6.4H104.9V126H97.3v40.9Zm35,0h17.9c13.3,0,22.3-8.2,22.3-20.5s-9.1-20.5-22.3-20.5H132.3v41Zm7.6-6.4V132.4h9.9c9.1,0,15,5.6,15,14s-5.9,14-15,14h-9.9Zm48.3-11.2h22.3V143H180.6v6.3Zm-7.6,11.2v6.4h29.9v-6.4H180.6Zm7.6-28.1h22.3V126H180.6v6.4Zm60.4-6.4v27.7L226,126h-6.3v40.9h7.5V139.2l22.6,27.7h6.3V126Zm26.1,23.3H297V143H267.1v6.3Zm-7.6,11.2v6.4H297v-6.4H267.1Zm7.6-28.1H297V126H267.1v6.4Z" style="fill:#a87d54"/><path d="M341.3,166.9l-9.4-13.4c5.6-2.2,8.7-6.7,8.7-12.9,0-9.1-6.7-14.6-17.4-14.6H306.4v40.9H314V155h9.2a8.6,8.6,0,0,0,1.6-.1l8.4,12Zm-8.4-26.4c0,5.1-3.4,8.2-10.1,8.2h-8.9V132.4h8.9c6.6,0,10.1,3,10.1,8.1ZM349,166.9h7.6V126H349v40.9ZM396.5,126v27.7L373.9,126h-6.3v40.9h7.5V139.2l22.6,27.7H404V126ZM443,158.7a16.64,16.64,0,0,1-8.4,2.1c-8.7,0-14.8-6.1-14.8-14.4,0-8.5,6.1-14.4,14.8-14.4a15.26,15.26,0,0,1,11.3,4.7l4.8-4.7c-3.9-4.4-9.6-6.7-16.4-6.7-12.8,0-22.2,8.8-22.2,21s9.4,21,22,21c5.8,0,11.8-1.8,16-5.2V146H443v12.7Zm24.8-9.4h22.3V143H460.2v6.3Zm0-16.9h22.3V126H460.2v6.4Zm-7.6,28.1v6.4H490v-6.4H460.2Z"/></svg>