<?xml version="1.0" standalone="no"?>
<!DOCTYPE svg PUBLIC "-//W3C//DTD SVG 20010904//EN"
 "http://www.w3.org/TR/2001/REC-SVG-20010904/DTD/svg10.dtd">
<svg version="1.0" xmlns="http://www.w3.org/2000/svg"
 width="3652.000000pt" height="1069.000000pt" viewBox="0 0 3652.000000 1069.000000"
 preserveAspectRatio="xMidYMid meet">

<g transform="translate(0.000000,1069.000000) scale(0.100000,-0.100000)"
fill="#000000" stroke="none">
<path d="M3730 7645 c-1152 -1153 -2097 -2098 -2100 -2101 -2 -3 128 -137 290
-299 l295 -295 1377 1377 1378 1378 0 -1845 0 -1845 -158 158 c-86 86 -162
157 -167 157 -13 0 -585 -572 -585 -585 0 -6 398 -408 885 -895 l885 -885 0
3888 c0 2138 -1 3887 -3 3887 -1 0 -945 -943 -2097 -2095z"/>
<path d="M22715 8773 c-898 -76 -1506 -452 -1852 -1146 -203 -407 -306 -876
-333 -1520 -29 -679 54 -1303 236 -1775 288 -747 835 -1187 1649 -1327 419
-71 950 -67 1315 11 462 99 854 310 1121 606 101 111 196 230 259 323 44 65
50 79 39 91 -8 7 -180 128 -384 269 -369 256 -370 256 -385 234 -122 -185
-333 -411 -464 -499 -147 -98 -321 -169 -511 -210 -130 -28 -460 -39 -609 -20
-331 40 -582 150 -779 340 -281 269 -440 686 -498 1305 -16 168 -16 653 0 820
91 966 440 1482 1101 1625 204 45 533 51 735 15 260 -47 508 -172 681 -343 69
-69 191 -223 249 -314 17 -27 34 -48 38 -48 7 0 588 418 740 532 17 13 14 20
-48 113 -266 397 -591 643 -1047 790 -204 66 -395 104 -628 125 -105 9 -528
11 -625 3z"/>
<path d="M27850 8769 c-143 -13 -353 -54 -486 -94 -794 -240 -1277 -858 -1448
-1855 -59 -339 -81 -676 -73 -1085 15 -699 116 -1208 327 -1643 118 -242 237
-410 417 -582 240 -232 530 -388 878 -475 424 -105 983 -109 1410 -8 504 118
903 388 1174 793 311 465 460 1065 478 1920 25 1233 -246 2084 -818 2564 -319
269 -703 417 -1208 466 -122 12 -515 11 -651 -1z m660 -857 c247 -51 425 -146
580 -308 264 -277 399 -702 440 -1389 34 -579 -21 -1193 -139 -1555 -172 -521
-477 -784 -988 -851 -134 -17 -453 -6 -563 19 -241 56 -396 139 -551 292 -237
235 -376 592 -433 1116 -60 545 -36 1204 60 1631 148 661 495 1004 1079 1067
101 10 422 -3 515 -22z"/>
<path d="M370 4811 c0 -2147 3 -3901 7 -3897 5 4 952 950 2105 2104 l2098
2097 -297 297 -298 298 -1377 -1377 -1378 -1378 0 1855 0 1855 175 -175 175
-175 298 298 297 297 -903 903 -902 902 0 -3904z"/>
<path d="M6990 8235 l0 -435 890 0 890 0 0 -2365 0 -2365 475 0 475 0 0 2365
0 2365 895 0 895 0 -2 433 -3 432 -2257 3 -2258 2 0 -435z"/>
<path d="M12340 5870 l0 -2800 470 0 470 0 0 1100 0 1100 391 -2 392 -3 707
-1095 707 -1095 552 -3 552 -2 -34 52 c-19 29 -357 552 -751 1162 -394 609
-716 1109 -714 1110 2 2 44 13 93 25 569 145 919 540 1025 1159 64 376 42 830
-54 1125 -178 544 -606 838 -1356 931 -238 30 -500 36 -1472 36 l-978 0 0
-2800z m2063 1960 c347 -22 528 -83 672 -226 110 -109 167 -262 184 -490 10
-127 1 -319 -20 -429 -64 -344 -276 -508 -724 -560 -101 -12 -254 -15 -682
-15 l-553 0 0 858 c0 472 3 862 7 865 10 11 949 8 1116 -3z"/>
<path d="M17160 8285 l0 -385 385 0 385 0 0 -2030 0 -2030 -385 0 -385 0 0
-385 0 -385 1250 0 1250 0 -2 383 -3 382 -387 3 -388 2 0 2030 0 2030 390 0
390 0 0 385 0 385 -1250 0 -1250 0 0 -385z"/>
<path d="M31610 5870 l0 -2800 460 0 460 0 2 2186 3 2185 1130 -2183 1131
-2183 562 -3 562 -2 0 2800 0 2800 -460 0 -460 0 -2 -2033 -3 -2033 -1044
2021 c-574 1111 -1048 2026 -1054 2033 -7 9 -149 12 -648 12 l-639 0 0 -2800z"/>
<path d="M22395 2145 c-35 -34 -35 -112 -1 -152 22 -25 31 -28 84 -28 96 1
134 43 118 131 -11 55 -39 74 -113 74 -54 0 -68 -4 -88 -25z"/>
<path d="M19570 2140 c-133 -21 -241 -90 -287 -182 -13 -24 -28 -78 -34 -120
-9 -63 -8 -85 5 -139 35 -137 124 -198 390 -270 153 -41 211 -66 245 -105 71
-81 38 -193 -69 -237 -83 -35 -219 -29 -300 13 -34 17 -93 72 -123 114 -13 18
-18 16 -96 -39 -44 -32 -81 -62 -81 -65 0 -14 58 -86 94 -118 88 -77 202 -113
361 -113 192 0 301 36 385 127 67 74 83 128 78 257 -3 90 -7 108 -33 155 -16
30 -43 65 -60 79 -51 44 -163 91 -305 128 -180 47 -215 62 -250 102 -23 26
-30 43 -30 76 0 88 68 144 189 154 114 10 210 -31 272 -114 13 -18 28 -33 33
-33 13 0 156 109 156 119 0 21 -70 99 -120 134 -30 20 -83 47 -119 58 -75 23
-220 32 -301 19z"/>
<path d="M13140 1511 l0 -611 259 0 c368 0 465 22 560 126 66 72 84 128 79
247 -2 75 -8 102 -29 142 -31 60 -91 108 -165 132 l-55 17 38 19 c51 26 90 64
116 112 18 33 22 57 22 140 0 115 -19 164 -80 211 -80 60 -121 67 -447 72
l-298 4 0 -611z m542 402 c56 -25 71 -50 71 -118 0 -122 -56 -156 -265 -163
l-138 -5 0 150 c0 82 3 153 8 157 4 5 68 6 142 4 109 -4 144 -9 182 -25z m-54
-473 c146 -17 192 -56 192 -165 0 -80 -23 -123 -85 -154 -43 -23 -61 -25 -216
-29 l-169 -5 0 175 c0 96 3 178 7 181 9 10 175 8 271 -3z"/>
<path d="M27435 2073 c8 -27 93 -300 189 -608 l174 -560 132 0 133 0 188 600
c104 330 189 603 189 608 0 4 -47 7 -105 7 l-104 0 -19 -62 c-169 -561 -277
-897 -283 -886 -4 7 -57 180 -119 383 -61 204 -125 414 -141 468 l-30 97 -109
0 -109 0 14 -47z"/>
<path d="M30310 1960 l0 -130 -65 0 -65 0 0 -80 0 -79 63 -3 62 -3 5 -310 c5
-309 5 -310 31 -360 49 -96 157 -135 319 -115 128 15 121 8 97 101 -18 74 -22
80 -41 74 -12 -4 -51 -9 -87 -12 -120 -9 -129 16 -129 370 l0 257 110 0 110 0
0 80 0 80 -110 0 -109 0 -3 128 -3 127 -92 3 -93 3 0 -131z"/>
<path d="M14433 1835 c-29 -8 -70 -23 -91 -34 -40 -21 -112 -88 -112 -106 0
-5 33 -31 73 -56 l73 -46 41 38 c51 47 106 62 206 57 57 -4 85 -10 105 -25 36
-26 62 -79 62 -125 0 -44 6 -42 -164 -58 -238 -23 -338 -70 -385 -181 -69
-159 -11 -336 129 -398 126 -55 261 -30 393 72 l37 29 0 -51 0 -51 96 0 96 0
-4 358 c-5 380 -9 413 -58 482 -30 42 -88 77 -157 95 -73 19 -269 19 -340 0z
m357 -584 l0 -99 -36 -27 c-69 -53 -145 -85 -202 -85 -100 0 -151 55 -137 149
13 89 88 131 265 150 47 4 91 9 98 10 9 1 12 -25 12 -98z"/>
<path d="M16525 1836 c-182 -58 -262 -188 -272 -446 -5 -107 -2 -139 16 -210
26 -104 69 -177 133 -225 60 -46 108 -63 214 -76 98 -12 213 1 283 32 46 20
141 104 141 124 0 5 -33 31 -72 57 l-72 47 -35 -31 c-50 -44 -97 -61 -171 -61
-142 0 -219 71 -236 217 l-7 56 302 0 c272 0 302 2 308 17 11 29 -14 245 -36
303 -36 97 -109 165 -210 196 -57 17 -231 17 -286 0z m241 -164 c52 -28 94
-106 94 -174 l0 -28 -201 0 -202 0 7 41 c13 80 74 162 129 174 64 13 134 8
173 -13z"/>
<path d="M17690 1841 c-44 -14 -124 -58 -170 -95 l-45 -36 -3 60 -3 60 -94 0
-95 0 0 -465 0 -465 95 0 95 0 0 318 0 319 58 42 c125 93 220 119 280 74 46
-34 50 -71 51 -425 l1 -328 101 0 101 0 -4 373 c-4 355 -5 374 -26 428 -25 62
-70 111 -124 133 -39 17 -172 21 -218 7z"/>
<path d="M20523 1835 c-29 -8 -70 -23 -91 -34 -40 -21 -112 -88 -112 -106 0
-5 33 -31 73 -56 l73 -46 41 38 c51 47 106 62 206 57 57 -4 85 -10 105 -25 36
-26 62 -79 62 -125 0 -44 6 -42 -164 -58 -238 -23 -338 -70 -385 -181 -69
-159 -11 -336 129 -398 126 -55 261 -30 393 72 l37 29 0 -51 0 -51 96 0 96 0
-4 358 c-5 380 -9 413 -58 482 -30 42 -88 77 -157 95 -73 19 -269 19 -340 0z
m357 -584 l0 -99 -36 -27 c-69 -53 -145 -85 -202 -85 -100 0 -151 55 -137 149
13 89 88 131 265 150 47 4 91 9 98 10 9 1 12 -25 12 -98z"/>
<path d="M21760 1841 c-44 -14 -124 -58 -170 -95 l-45 -36 -3 60 -3 60 -94 0
-95 0 0 -465 0 -465 95 0 95 0 0 318 0 319 58 42 c125 93 220 119 280 74 46
-34 50 -71 51 -425 l1 -328 101 0 101 0 -4 373 c-4 355 -5 374 -26 428 -25 62
-70 111 -124 133 -39 17 -172 21 -218 7z"/>
<path d="M23085 1836 c-182 -58 -262 -188 -272 -446 -5 -107 -2 -139 16 -210
26 -104 69 -177 133 -225 60 -46 108 -63 214 -76 98 -12 213 1 283 32 46 20
141 104 141 124 0 5 -33 31 -72 57 l-72 47 -35 -31 c-50 -44 -97 -61 -171 -61
-142 0 -219 71 -236 217 l-7 56 302 0 c272 0 302 2 308 17 11 29 -14 245 -36
303 -36 97 -109 165 -210 196 -57 17 -231 17 -286 0z m241 -164 c52 -28 94
-106 94 -174 l0 -28 -201 0 -202 0 7 41 c13 80 74 162 129 174 64 13 134 8
173 -13z"/>
<path d="M24765 1836 c-182 -58 -262 -188 -272 -446 -5 -107 -2 -139 16 -210
26 -104 69 -177 133 -225 60 -46 108 -63 214 -76 98 -12 213 1 283 32 46 20
141 104 141 124 0 5 -33 31 -72 57 l-72 47 -35 -31 c-50 -44 -97 -61 -171 -61
-142 0 -219 71 -236 217 l-7 56 302 0 c272 0 302 2 308 17 11 29 -14 245 -36
303 -36 97 -109 165 -210 196 -57 17 -231 17 -286 0z m241 -164 c52 -28 94
-106 94 -174 l0 -28 -201 0 -202 0 7 41 c13 80 74 162 129 174 64 13 134 8
173 -13z"/>
<path d="M25930 1841 c-44 -14 -124 -58 -170 -95 l-45 -36 -3 60 -3 60 -94 0
-95 0 0 -465 0 -465 95 0 95 0 0 318 0 319 58 42 c125 93 220 119 280 74 46
-34 50 -71 51 -425 l1 -328 101 0 101 0 -4 373 c-4 355 -5 374 -26 428 -25 62
-70 111 -124 133 -39 17 -172 21 -218 7z"/>
<path d="M28805 1836 c-182 -58 -262 -188 -272 -446 -5 -107 -2 -139 16 -210
26 -104 69 -177 133 -225 60 -46 108 -63 214 -76 98 -12 213 1 283 32 46 20
141 104 141 124 0 5 -33 31 -72 57 l-72 47 -35 -31 c-50 -44 -97 -61 -171 -61
-142 0 -219 71 -236 217 l-7 56 302 0 c272 0 302 2 308 17 11 29 -14 245 -36
303 -36 97 -109 165 -210 196 -57 17 -231 17 -286 0z m241 -164 c52 -28 94
-106 94 -174 l0 -28 -201 0 -202 0 7 41 c13 80 74 162 129 174 64 13 134 8
173 -13z"/>
<path d="M31813 1835 c-29 -8 -70 -23 -91 -34 -40 -21 -112 -88 -112 -106 0
-5 33 -31 73 -56 l73 -46 41 38 c51 47 106 62 206 57 57 -4 85 -10 105 -25 36
-26 62 -79 62 -125 0 -44 6 -42 -164 -58 -238 -23 -338 -70 -385 -181 -69
-159 -11 -336 129 -398 126 -55 261 -30 393 72 l37 29 0 -51 0 -51 96 0 96 0
-4 358 c-5 380 -9 413 -58 482 -30 42 -88 77 -157 95 -73 19 -269 19 -340 0z
m357 -584 l0 -99 -36 -27 c-69 -53 -145 -85 -202 -85 -100 0 -151 55 -137 149
13 89 88 131 265 150 47 4 91 9 98 10 9 1 12 -25 12 -98z"/>
<path d="M33905 1836 c-182 -58 -262 -188 -272 -446 -5 -107 -2 -139 16 -210
26 -104 69 -177 133 -225 60 -46 108 -63 214 -76 98 -12 213 1 283 32 46 20
141 104 141 124 0 5 -33 31 -72 57 l-72 47 -35 -31 c-50 -44 -97 -61 -171 -61
-142 0 -219 71 -236 217 l-7 56 302 0 c272 0 302 2 308 17 11 29 -14 245 -36
303 -36 97 -109 165 -210 196 -57 17 -231 17 -286 0z m241 -164 c52 -28 94
-106 94 -174 l0 -28 -201 0 -202 0 7 41 c13 80 74 162 129 174 64 13 134 8
173 -13z"/>
<path d="M35060 1841 c-44 -14 -124 -58 -170 -95 l-45 -36 -3 60 -3 60 -94 0
-95 0 0 -465 0 -465 95 0 95 0 0 318 0 319 58 42 c125 93 220 119 280 74 46
-34 50 -71 51 -425 l1 -328 101 0 101 0 -4 373 c-4 355 -5 374 -26 428 -25 62
-70 111 -124 133 -39 17 -172 21 -218 7z"/>
<path d="M24230 1831 c-44 -14 -88 -40 -145 -86 l-55 -45 0 65 0 65 -95 0 -95
0 0 -465 0 -465 95 0 95 0 0 309 0 309 43 37 c23 21 71 51 105 68 57 27 70 29
128 24 72 -7 62 -19 88 106 13 63 12 68 -5 77 -21 12 -122 12 -159 1z"/>
<path d="M29950 1831 c-44 -14 -88 -40 -145 -86 l-55 -45 0 65 0 65 -95 0 -95
0 0 -465 0 -465 95 0 95 0 0 309 0 309 43 37 c23 21 71 51 105 68 57 27 70 29
128 24 72 -7 62 -19 88 106 13 63 12 68 -5 77 -21 12 -122 12 -159 1z"/>
<path d="M31320 1831 c-44 -14 -88 -40 -145 -86 l-55 -45 0 65 0 65 -95 0 -95
0 0 -465 0 -465 95 0 95 0 0 309 0 309 43 37 c23 21 71 51 105 68 57 27 70 29
128 24 72 -7 62 -19 88 106 13 63 12 68 -5 77 -21 12 -122 12 -159 1z"/>
<path d="M15252 1448 c3 -378 3 -384 27 -436 44 -97 113 -136 241 -136 94 1
161 26 250 93 l65 49 3 -59 3 -59 94 0 95 0 0 465 0 465 -95 0 -95 0 0 -314 0
-314 -45 -40 c-56 -49 -149 -99 -201 -108 -58 -9 -106 14 -129 62 -18 35 -20
71 -23 377 l-4 337 -95 0 -94 0 3 -382z"/>
<path d="M22390 1365 l0 -465 95 0 95 0 0 465 0 465 -95 0 -95 0 0 -465z"/>
<path d="M32622 1448 c3 -378 3 -384 27 -436 44 -97 113 -136 241 -136 94 1
161 26 250 93 l65 49 3 -59 3 -59 94 0 95 0 0 465 0 465 -95 0 -95 0 0 -314 0
-314 -45 -40 c-56 -49 -149 -99 -201 -108 -58 -9 -106 14 -129 62 -18 35 -20
71 -23 377 l-4 337 -95 0 -94 0 3 -382z"/>
<path d="M18362 1120 c-26 -11 -52 -65 -52 -108 0 -83 42 -122 130 -122 82 0
114 25 126 97 8 57 -10 110 -46 128 -32 16 -122 19 -158 5z"/>
<path d="M26602 1120 c-26 -11 -52 -65 -52 -108 0 -83 42 -122 130 -122 82 0
114 25 126 97 8 57 -10 110 -46 128 -32 16 -122 19 -158 5z"/>
<path d="M35732 1120 c-26 -11 -52 -65 -52 -108 0 -83 42 -122 130 -122 82 0
114 25 126 97 8 57 -10 110 -46 128 -32 16 -122 19 -158 5z"/>
</g>
</svg>
